<?xml version="1.0" encoding="utf-8"?>
<!-- Generator: Adobe Illustrator 21.0.0, SVG Export Plug-In . SVG Version: 6.00 Build 0)  -->
<svg version="1.1" id="Calque_1" xmlns="http://www.w3.org/2000/svg" xmlns:xlink="http://www.w3.org/1999/xlink" x="0px" y="0px"
	 viewBox="0 0 165 26" style="enable-background:new 0 0 165 26;" xml:space="preserve">
<style type="text/css">
	.st0{fill:#1D1D1B;}
</style>
<path class="st0" d="M154.5,0.4v0.6c1.8,0.1,2.8,0.8,3.9,2.2c1,1.4,1.8,3.1,2.2,5.1c-2.1-1.6-4.6-2.5-7.4-2.5
	c-2.6,0-5.1,0.8-7.1,2.3c0.4-1.9,1.1-3.5,2.1-4.9c1.1-1.5,2.1-2.1,3.9-2.2V0.4c-6,0.3-10.5,5.8-10.5,12.8c0,6.9,4.6,12.3,10.5,12.5
	v-0.6c-2.1-0.1-3.6-1.1-4.7-3c-1.3-2.2-1.9-5.1-1.9-8.9c0-1.6,0.1-2.7,0.3-4c2-1.6,4.5-2.5,7.3-2.5c2.9,0,5.5,1,7.6,2.8
	c0.2,1.2,0.3,2.3,0.3,3.8c0,3.7-0.6,6.6-1.9,8.8c-1.1,1.9-2.6,2.9-4.7,3v0.6c5.9-0.2,10.5-5.7,10.5-12.5
	C165,6.2,160.5,0.7,154.5,0.4z"/>
<g>
	<path class="st0" d="M43.8,4.1c-2.3-2.4-5.4-3.7-8.7-3.7c0,0-1.2,0.1-1.3,0.1c-2.9,0.3-5.5,1.6-7.5,3.7c-2.3,2.4-3.6,5.6-3.6,8.9
		c0,3.4,1.3,6.5,3.6,9c2.3,2.4,5.5,3.7,8.8,3.7c3.3,0,6.5-1.3,8.8-3.7l0.1-0.1v-5c0-0.4,0.3-0.6,0.6-0.6h1.4v-0.8h-4.9v0.8h1.4
		c0.2,0,0.4,0.1,0.5,0.3c0,0.1,0.1,0.2,0.1,0.2v4.5c-2.1,2.1-4.9,3.3-7.8,3.3c-3,0-5.9-1.2-8-3.5c-2.2-2.2-3.3-5.1-3.3-8.2
		c0-3.1,1.2-6,3.3-8.2c0.9-0.9,2-1.7,3.1-2.3c1.5-0.8,3.2-1.1,4.9-1.1c3.9,0,6.6,2,7.5,2.9c0.3,0.3,0.5,1,0.5,2.1v1.4h0.8V4.2
		L43.8,4.1z"/>
	<path class="st0" d="M111.8,4.1c-2.3-2.4-5.4-3.7-8.7-3.7c-3.3,0-6.5,1.3-8.8,3.7c-2.3,2.4-3.6,5.6-3.6,8.9c0,3.4,1.3,6.5,3.6,9
		c2.3,2.4,5.5,3.7,8.8,3.7c3.3,0,6.5-1.3,8.8-3.7l0.2-0.2l-0.7-0.8l-0.2,0.2c-2.2,2.2-5,3.5-8.1,3.5c-3,0-5.9-1.2-8.1-3.5
		c-2.2-2.2-3.4-5.1-3.4-8.2c0-3.1,1.2-6,3.4-8.2c2.1-2.2,5-3.4,8.1-3.4c2.8,0,5.5,1,7.5,2.9c0.3,0.3,0.5,1,0.5,2.1v1.4h0.8V4.2
		L111.8,4.1z"/>
	<path class="st0" d="M63.4,24.1c0,0.4-0.3,0.6-0.5,0.6H50.5V13.5h9.9v-0.9h-9.9V1.4l11.3,0c0.3,0,0.5,0.2,0.5,0.6c0,0,0,2,0,2
		l0,0.2h0.8V0.4H47.5v0.8l1.4,0c0.3,0,0.5,0.2,0.5,0.6v22.4c0,0.4-0.3,0.6-0.6,0.6h-1.4v0.8h16.7v-3.9h-0.8V24.1z"/>
	<path class="st0" d="M130.1,24.1c0,0.4-0.3,0.6-0.5,0.6h-12.4V13.5h9.9v-0.9h-9.9V1.4l11.3,0c0.3,0,0.5,0.2,0.5,0.6c0,0,0,2,0,2
		l0,0.2h0.8V0.4h-15.6v0.8l1.4,0c0.3,0,0.5,0.2,0.5,0.6v22.4c0,0.4-0.3,0.6-0.6,0.6h-1.4v0.8h16.7v-3.9h-0.8V24.1z"/>
	<path class="st0" d="M83.9,1.2h1.4c0.3,0,0.6,0.2,0.6,0.6v21.8l-16-23.1l-0.1-0.1H67v0.8h1.4c0.3,0,0.6,0.2,0.6,0.5v22.5
		c0,0.4-0.3,0.6-0.6,0.6h-1.4v0.8h5v-0.8h-1.4c-0.3,0-0.6-0.2-0.6-0.6V2.5l15.9,23l0.1,0.1h0.9V1.8c0-0.4,0.3-0.6,0.6-0.6h1.4V0.4
		h-5V1.2z"/>
	<rect x="137.1" y="0.4" class="st0" width="1" height="7.3"/>
	<path class="st0" d="M21.7,23.4l-9.1-23h-0.9c0,0-9.4,23.6-9.4,23.8c-0.2,0.4-0.7,0.7-1,0.7H0v0.8h4.9v-0.8H3.5c0,0-0.1,0-0.2-0.1
		c0,0,0-0.2,0-0.4l3.1-7.7h11.3c0.5,1.2,3.1,7.6,3.1,7.7c0.1,0.2,0.1,0.4,0.1,0.4c0,0-0.1,0.1-0.2,0.1h-1.4v0.8h4.9v-0.8H23
		C22.8,24.8,22.3,24.6,21.7,23.4z M17.5,15.7H6.9c1.6-4.2,4.5-11.6,5.2-13.6C15.9,11.8,17.1,14.8,17.5,15.7z"/>
</g>
</svg>
