<svg xmlns="http://www.w3.org/2000/svg" viewBox="0 0 1000.22 279.77">
    <path d="M358.17,241.55c-33.48,24.91-82.14,38.19-124,38.22-58.68.05-111.5-21.69-151.54-58-3.15-2.84-.33-6.74,3.45-4.52,43.16,25.18,96.49,40.36,151.61,40.32A300.63,300.63,0,0,0,353.3,233.69C359,231.26,363.74,237.45,358.17,241.55Zm-26-21.84c-3,2.06-2.46,4.94.85,4.55,10.8-1.32,34.86-4.22,39.18,1.25s-4.78,28.32-8.81,38.5c-1.21,3,1.39,4.29,4.17,2,18-15.17,22.6-46.87,18.93-51.42S351.34,206.13,332.13,219.71Zm65.64-38.52c-10.26-5.81-22.17-7.52-33.48-7.23l30.36-43.69c2.83-3.93,4.43-6.39,4.43-8.29V110.71a3.29,3.29,0,0,0-3.38-3.35l-58.74,0a3.26,3.26,0,0,0-3.31,3.35v13.17a3.26,3.26,0,0,0,3.39,3.32l30.69,0-35.21,50.85c-2.14,3.28-2.18,6.9-2.17,9v13.37c0,2,2.13,4.14,4.16,3,20-10.7,44-9.65,62.06-.16,2.23,1.16,4.33-1.05,4.33-3l0-14A5.86,5.86,0,0,0,397.77,181.19ZM101.61,206.37h17.88a3.36,3.36,0,0,0,3.44-3.32l0-48.84c0-10.7-.49-25.42,12.32-25.43s11,15.11,11,25.42L146.3,203a3.36,3.36,0,0,0,3.21,3.32l17.85,0a3.38,3.38,0,0,0,3.47-3.32l0-48.83c0-5.28-.2-13,1.62-17.67a11.88,11.88,0,0,1,10.68-7.57c5.18,0,9.17,1.74,10.52,7.94.83,3.69.52,13.37.52,17.28l0,48.83a3.36,3.36,0,0,0,3.19,3.32l17.85,0a3.33,3.33,0,0,0,3.43-3.32V144.78c0-9.88,1.1-21.1-4.54-28.86-5-7-13.19-10.08-20.71-10.08-10.5,0-20.34,5.44-24.67,17.08-5-11.63-12-17-23.2-17-11,0-19.17,5.44-23.49,17.08h-.35v-12a3.32,3.32,0,0,0-3.25-3.08l-16.64,0a3.36,3.36,0,0,0-3.43,3.32l0,92.18A3.36,3.36,0,0,0,101.61,206.37Zm388.92-48.81c0,28.15-15.79,50.46-40.82,50.48-26,0-40.2-22.84-40.22-51.35,0-28.73,14.29-51,40.15-51C476.14,105.62,490.51,128.5,490.53,157.56Zm-26.35.24c0-7.77-.34-17.08-2.67-24.45-2-6.39-6-8.92-11.7-8.92-13.19,0-14,18-14,29.33s-.12,35.32,13.87,35.31C463.53,189.06,464.19,169.64,464.18,157.8Zm108.39-41.43c-5-7.92-12.86-10.81-20.85-10.81-12.37,0-19.34,6-24.35,18.64h-.32V110.1a3.4,3.4,0,0,0-3.19-2.56H507.28a3.41,3.41,0,0,0-3.43,3l.1,92.2a3.38,3.38,0,0,0,3.22,3.32l17.8,0a3.43,3.43,0,0,0,3.48-3.32l0-49.63c0-6.2.33-11.83,2.83-17.47,2-4.44,6-7.37,10.32-7.37,12.36,0,11.2,14.73,11.2,24.82l0,50.06A3.36,3.36,0,0,0,556,206h17.91a3.39,3.39,0,0,0,3.44-2.9l0-58C577.27,136.18,577.26,123.78,572.57,116.37ZM286.85,141.59c0-4.24.35-9.32-2.19-13-2.19-3.29-6.36-4.65-10-4.64-6.83,0-12.86,3.52-14.37,10.77-.28,1.63-1.48,3.22-3.09,3.31l-17.3-1.84a3.19,3.19,0,0,1-2.68-3.81c4-21.07,22.93-27.48,39.92-27.5,8.69,0,20.08,2.32,26.94,8.91,8.71,8.18,7.85,19.06,7.86,30.92l0,28c0,8.45,3.47,12.12,6.75,16.65,1.11,1.63,1.41,3.58,0,4.76-3.67,3.08-10.13,8.78-13.72,12l0-.05a3.56,3.56,0,0,1-4.21.42c-5.92-4.94-7-7.23-10.25-11.95-9.81,10.05-16.74,13.08-29.47,13.09-15.05,0-26.74-9.3-26.75-28,0-14.56,7.85-24.48,19-29.36,9.7-4.3,23.23-5.08,33.59-6.27Zm0,20.62V158.3c-12.94,0-26.57,2.86-26.56,18.1,0,7.82,4,13,10.9,13,5,0,9.49-3.11,12.33-8.16C287,175.05,286.87,169.23,286.86,162.21Zm-202.42,32c-3.66,3.08-10.17,8.77-13.71,11.94l0,0a3.58,3.58,0,0,1-4.22.43c-6-4.94-7-7.24-10.26-12-9.8,10.06-16.72,13.08-29.46,13.09-15,0-26.73-9.3-26.75-28,0-14.57,7.86-24.49,19-29.37,9.7-4.3,23.22-5.08,33.6-6.26v-2.33c0-4.25.32-9.33-2.2-13-2.17-3.28-6.35-4.64-10-4.64-6.83,0-12.91,3.52-14.37,10.77-.31,1.63-1.48,3.22-3.09,3.31L5.61,136.36A3.21,3.21,0,0,1,3,132.55c4-21.07,22.93-27.48,39.93-27.49,8.7,0,20.08,2.32,26.9,8.9,8.71,8.17,7.9,19.06,7.91,30.92l0,28c0,8.45,3.46,12.13,6.76,16.65C85.6,191.12,85.88,193.07,84.44,194.25ZM52.65,162.4v-3.91c-13,0-26.58,2.85-26.57,18.09,0,7.82,4,13,10.87,13,5,0,9.53-3.1,12.38-8.15C52.81,175.23,52.66,169.42,52.65,162.4ZM605.71,82.58,691,82.51v-15l-85.32.07Zm0-22.51L691,60V45l-85.33.06Zm0-22.5L691,37.51l0-15-85.32.07ZM691,15V0L605.64.07v15Zm7.45,67.51,85.32-.07v-15l-85.33.06Zm85.3-22.57v-15L698.4,45V60Zm7.52,22.49,85.33-.06v-15l-85.33.07Zm0-37.5v15l85.33-.07,0-15Zm85.32-7.57v-15l-85.33.06,0,15ZM860.31,151.74c-18.46-8.81-18.46-8.81-21.3-11.41a13.25,13.25,0,0,1-4.07-9.83c0-8.41,5.67-13.43,15.41-13.44,5.48,0,11.36,1.59,19.07,5.2a9.36,9.36,0,0,0,1.63.4,2.73,2.73,0,0,0,1.83-1.21l3.64-7.42c.4-1,.4-1,.4-1.4,0-3.41-15.62-8.42-26.17-8.41-18.06,0-30.84,11.66-30.82,27.9,0,7.82,3.06,14,9.34,19,4.87,4,9.14,6.21,22.74,12.43,9.53,4.39,13,8.4,13,15.21,0,8.63-6.48,14.45-16.22,14.46-6.9,0-15.83-2.4-24.76-6.8a6.07,6.07,0,0,0-1.62-.41,1.71,1.71,0,0,0-1.22.8l-3.84,8.83a1.24,1.24,0,0,0-.2.81c0,.8.2,1.2,1.22,1.8a63.53,63.53,0,0,0,30,7.8c19.26,0,32.23-11.45,32.22-28.5C880.61,165.55,875.34,158.94,860.31,151.74Zm50.3-43.06H899.86c-2,0-2.16.4-2.16,2.43h0v91.31a3.36,3.36,0,0,0,3.19,3.62h8.56a3.43,3.43,0,0,0,3.4-3.52V111.1C912.85,109.07,912.43,108.67,910.61,108.68Zm60.81,9.11c6.9,0,11,1.82,20.9,9.12a2.45,2.45,0,0,0,1.63.81c.6,0,1-.41,1.62-1.42l4.45-7.92.21-1.21c0-1.43-1.22-2.85-4.48-5.07A42.57,42.57,0,0,0,971,104.2c-25.55,0-41.15,20.52-41.13,53.79,0,30.84,14.24,49.28,38.37,49.26a48.75,48.75,0,0,0,28.39-9.55c2.23-1.63,3.25-2.84,3.25-3.86a19.68,19.68,0,0,0-.62-2l-3-7.7c-.41-.82-.81-1.23-1.42-1.23a2.66,2.66,0,0,0-1.42.61c-11.56,8.12-15.82,10-23.93,10-15,0-22.52-12.57-22.55-37.93C946.89,130.59,955.19,117.8,971.42,117.79Zm-255.6,19c0-11.49,0-31-26.1-31-10.18,0-19.05,6.94-23.48,15.52-3.16-11.12-10-15.49-21.47-15.48-9.41,0-19.48,4.93-23.74,13.5v-7.91a3.32,3.32,0,0,0-3.21-3.29h-9a3.37,3.37,0,0,0-3.42,3v91.65a3.44,3.44,0,0,0,3.32,3.3h9a3.37,3.37,0,0,0,3.42-3l0-64.41c0-15.33,11.29-19.71,18.5-19.71,10.9,0,12.9,8.88,13.25,16.13V203.5c0,1.74,1.8,2.63,3.62,2.74h8.72a3.33,3.33,0,0,0,3.33-2.73V138.27C668.72,123.34,679.8,119,687,119c11.13,0,13,9.27,13.27,16.61l.06,67.81A2.94,2.94,0,0,0,703,206l0,.11h9.5c1.79,0,3.27-1.09,3.41-2.48V185.27Zm82.83-30h-8.87a3.23,3.23,0,0,0-3.25,3v64.41c0,15.32-14.34,19.67-24.06,19.71-10.73,0-12.68-8.88-13-16.14l-.06-68.33a3.67,3.67,0,0,0-3.5-2.73h-8.59a3.16,3.16,0,0,0-3.33,2.48v65.49s.4,11.8,2.3,16.88,9.25,15.5,24.09,15.49c13.91,0,22-4.93,26.18-13.51v7.91a3.3,3.3,0,0,0,3.15,3.29h8.87a3.27,3.27,0,0,0,3.29-3V110.18A3.33,3.33,0,0,0,798.65,106.88ZM899.84,83.12H910.6c2,0,2.23-.37,2.23-2.2V70.09c0-1.83-.41-2.19-2.23-2.19H899.83c-2,0-2.24.36-2.23,2.19V80.94C897.61,82.76,898,83.13,899.84,83.12Z" fill="#fff"/>
</svg>