<svg xmlns="http://www.w3.org/2000/svg" viewBox="0 0 682.67 682.67">
    <path class="cls-1" d="M485,140.3c.56,1.95.43,259.12.4,301.54a43.07,43.07,0,0,1-1.6,11.57c-5.44,19.32-18.7,33-37.48,38.63-13.28,4-32.68,5.46-42.21,3.22-8.48-2-14.63-5.55-21.35-12.31-9.79-9.84-14.13-19.9-14.15-32.77,0-7.19,1.27-12.61,4.67-19.84,4.82-10.22,11.06-16.38,22.3-22,9-4.5,17-6.83,40.53-11.73,15.44-3.23,21.7-4.61,24.71-8.19,4.14-4.91,1.08-152.45-.16-154.32-1.82-2.79-5.63-4.23-9.65-3.66-4.27.61-156.2,31.35-160,32.38a11.51,11.51,0,0,0-8.24,9.05c-.57,2.69-.71,216.54-5.23,228.55a65.36,65.36,0,0,1-5.14,10.49,61.17,61.17,0,0,1-17.14,16.56c-13.88,8.21-41,12.43-55.49,8.64-15.35-4-26.75-14.48-31.89-29.23-2.46-7.06-3-18.69-1.32-26.46a44.83,44.83,0,0,1,11.64-21.54c10-10,21.71-14.64,53.36-21.09,6.83-1.39,13.88-3,15.66-3.59,3.77-1.24,7.85-5.11,9.68-9.2,1.21-2.69,2-241.4,2-241.4l1.66-3.37a20.14,20.14,0,0,1,10.25-9.3c2.7-1,160.47-33.18,187.24-38.17a126.73,126.73,0,0,1,14.4-2.05C478.69,130.71,483.25,134.2,485,140.3ZM661,341c0,176.73-143.27,320-320,320S21,517.73,21,341,164.27,21,341,21,661,164.27,661,341Zm-26.88,0C634.12,179.12,502.88,47.88,341,47.88S47.88,179.12,47.88,341,179.12,634.12,341,634.12,634.12,502.88,634.12,341Z" fill="#fff"/>
</svg>